<svg id="visual" viewBox="0 0 1920 1080" width="1920" height="1080" xmlns="http://www.w3.org/2000/svg" xmlns:xlink="http://www.w3.org/1999/xlink" version="1.1"><g fill="none" stroke="#fff000" stroke-width="4"><path d="M0 -175.6L39.4 -54.2L167 -54.2L63.8 20.7L103.2 142L0 67.1L-103.2 142L-63.8 20.7L-167 -54.2L-39.4 -54.2Z" transform="translate(1062 849)"></path><path d="M0 -44.4L10 -13.7L42.2 -13.7L16.1 5.2L26.1 35.9L0 16.9L-26.1 35.9L-16.1 5.2L-42.2 -13.7L-10 -13.7Z" transform="translate(723 614)"></path><path d="M0 -152L34.1 -47L144.5 -47L55.2 17.9L89.3 122.9L0 58L-89.3 122.9L-55.2 17.9L-144.5 -47L-34.1 -47Z" transform="translate(1810 209)"></path><path d="M0 -77.4L17.4 -23.9L73.6 -23.9L28.1 9.1L45.5 62.6L0 29.6L-45.5 62.6L-28.1 9.1L-73.6 -23.9L-17.4 -23.9Z" transform="translate(243 403)"></path><path d="M0 -116.1L26.1 -35.9L110.4 -35.9L42.2 13.7L68.2 93.9L0 44.3L-68.2 93.9L-42.2 13.7L-110.4 -35.9L-26.1 -35.9Z" transform="translate(1436 319)"></path><path d="M0 -134L30.1 -41.4L127.5 -41.4L48.7 15.8L78.8 108.4L0 51.2L-78.8 108.4L-48.7 15.8L-127.5 -41.4L-30.1 -41.4Z" transform="translate(185 997)"></path><path d="M0 -107.6L24.2 -33.2L102.3 -33.2L39.1 12.7L63.2 87L0 41.1L-63.2 87L-39.1 12.7L-102.3 -33.2L-24.2 -33.2Z" transform="translate(1820 657)"></path><path d="M0 -152L34.1 -47L144.5 -47L55.2 17.9L89.3 122.9L0 58L-89.3 122.9L-55.2 17.9L-144.5 -47L-34.1 -47Z" transform="translate(994 173)"></path><path d="M0 -83.1L18.6 -25.7L79 -25.7L30.2 9.8L48.8 67.2L0 31.7L-48.8 67.2L-30.2 9.8L-79 -25.7L-18.6 -25.7Z" transform="translate(321 10)"></path><path d="M0 -135.9L30.5 -42L129.3 -42L49.4 16L79.9 110L0 51.9L-79.9 110L-49.4 16L-129.3 -42L-30.5 -42Z" transform="translate(1657 1069)"></path><path d="M0 -161.4L36.2 -49.9L153.5 -49.9L58.6 19.1L94.9 130.6L0 61.6L-94.9 130.6L-58.6 19.1L-153.5 -49.9L-36.2 -49.9Z" transform="translate(1423 720)"></path><path d="M0 -71.7L16.1 -22.2L68.2 -22.2L26.1 8.5L42.2 58L0 27.4L-42.2 58L-26.1 8.5L-68.2 -22.2L-16.1 -22.2Z" transform="translate(569 974)"></path></g></svg>