<svg xmlns="http://www.w3.org/2000/svg" version="1.1" xmlns:xlink="http://www.w3.org/1999/xlink" xmlns:svgjs="http://svgjs.dev/svgjs" width="1440" height="560" preserveAspectRatio="none" viewBox="0 0 1440 560"><g mask="url(&quot;#SvgjsMask1023&quot;)" fill="none"><rect width="1440" height="560" x="0" y="0" fill="rgba(222, 236, 245, 1)"></rect><path d="M0,525.562C109.462,539.584,220.443,542.719,323.615,503.554C442.55,458.405,572.88,401.441,628.44,286.999C684.194,172.156,630.577,38.299,610.71,-87.807C591.123,-212.14,589.288,-344.423,513.174,-444.667C434.932,-547.714,313.929,-610.044,188.901,-643.339C65.847,-676.108,-61.216,-659.807,-185.172,-630.637C-315.101,-600.062,-465.161,-579.023,-543.538,-470.979C-621.293,-363.793,-569.041,-215.459,-581.951,-83.672C-594.134,40.692,-681.765,174.866,-617.29,281.907C-551.932,390.415,-392.21,380.443,-274.385,426.951C-182.115,463.372,-98.394,512.958,0,525.562" fill="#bad7ea"></path><path d="M1440 950.47C1512.421 943.211 1543.087 853.953 1598.855 807.183 1645.724 767.876 1708.455 749.178 1741.441 697.664 1777.011 642.113 1801.607 574.583 1789.289 509.78 1777.126 445.793 1722.445 401.219 1676.347 355.20500000000004 1633.274 312.212 1587.966 271.778 1530.5720000000001 251.539 1471.083 230.56099999999998 1407.454 226.094 1345.623 238.57999999999998 1279.921 251.848 1208.6680000000001 271.075 1168.4189999999999 324.674 1128.72 377.53999999999996 1141.3 450.462 1136.976 516.432 1132.997 577.143 1122.701 638.177 1144.1399999999999 695.115 1166.441 754.342 1211.3609999999999 799.869 1259.271 841.22 1313.663 888.1659999999999 1368.508 957.636 1440 950.47" fill="#ffffff"></path></g><defs><mask id="SvgjsMask1023"><rect width="1440" height="560" fill="#ffffff"></rect></mask></defs></svg>